<svg xmlns="http://www.w3.org/2000/svg" viewBox="0 0 158.34 158.63"><defs><style>.cls-1{fill:#f7941d;}.cls-2{fill:#6d6e71;}.cls-3{fill:#27aae1;}</style></defs><g id="Layer_2" data-name="Layer 2"><g id="Layer_1-2" data-name="Layer 1"><path class="cls-1" d="M36.36,158.14,2,138.3a3.45,3.45,0,0,1-1.29-1.11c-.06-.08-.1-.16-.15-.24a2.85,2.85,0,0,1-.16-.3A3.45,3.45,0,0,1,.06,135V109.84c0-4.83,7.5-4.8,7.5,0v23l26.85,15.5V117.27L1.83,98.46A3.42,3.42,0,0,1,.06,94.77a3.37,3.37,0,0,1,1.8-2.84L36.34,72a3.79,3.79,0,0,1,3.73,0L74.54,91.92a3.81,3.81,0,0,1,0,6.5L52.69,111.05c-4.18,2.41-7.93-4.08-3.75-6.5l16.25-9.37-27-15.58-27,15.6L40,111.85a3.72,3.72,0,0,1,1.89,3.28v33.29l27-15.57V109.74c0-4.83,7.5-4.8,7.5,0V135s0,0,0,.06a3.39,3.39,0,0,1-1.82,3.14l-34.47,19.9A3.76,3.76,0,0,1,36.36,158.14Z"/><path class="cls-2" d="M115.55,20.42,81.17.57A3.38,3.38,0,0,0,79.56,0h-.28a2,2,0,0,0-.34,0,3.31,3.31,0,0,0-1.59.56L55.57,13.14c-4.18,2.41-.41,8.9,3.78,6.48L79.26,8.13l26.84,15.5L79.18,39.17,46.6,20.36a3.42,3.42,0,0,0-4.08.31,3.39,3.39,0,0,0-1.56,3v39.8a3.76,3.76,0,0,0,1.86,3.24L77.29,86.6a3.82,3.82,0,0,0,5.64-3.23V58.11c0-4.82-7.5-4.83-7.5,0V76.87l-27-15.57V30.09L77.29,46.74a3.76,3.76,0,0,0,3.78,0l28.84-16.65V61.24l-20,11.55c-4.18,2.42-.4,8.9,3.79,6.48l21.87-12.63,0,0a3.4,3.4,0,0,0,1.81-3.15V23.66A3.78,3.78,0,0,0,115.55,20.42Z"/><path class="cls-3" d="M122,158.14l34.38-19.84a3.53,3.53,0,0,0,1.29-1.11l.14-.24a2.91,2.91,0,0,0,.17-.3,3.44,3.44,0,0,0,.31-1.66V109.84c0-4.83-7.5-4.8-7.5,0v23l-26.85,15.5V117.27l32.58-18.81a3.84,3.84,0,0,0,0-6.53L122,72a3.8,3.8,0,0,0-3.74,0L83.8,91.92a3.82,3.82,0,0,0,0,6.5l21.87,12.63c4.18,2.41,7.94-4.08,3.75-6.5L93.16,95.18l27-15.58,27,15.6-28.83,16.65a3.65,3.65,0,0,0-1.37,1.36,3.58,3.58,0,0,0-.52,1.92v33.29l-27-15.57V109.74c0-4.83-7.5-4.8-7.5,0v25.31a3.39,3.39,0,0,0,1.82,3.14l34.48,19.9A3.76,3.76,0,0,0,122,158.14Z"/></g></g></svg>